<?xml version="1.0" encoding="UTF-8"?>
<svg id="_레이어_1" data-name="레이어 1" xmlns="http://www.w3.org/2000/svg" viewBox="0 0 287.03 43.68">
  <defs>
    <style>
      .cls-1 {
        fill: #fff;
      }

      .cls-2 {
        fill: #c30037;
      }
    </style>
  </defs>
  <path class="cls-1" d="M39.52,12.48H14.56S0,12.48,0,24.96v8.32s0,8.32,12.48,8.32h27.04v-16.64h-10.4v8.32h-6.24s-4.16,0-4.16-4.16v-4.16s0-4.16,4.16-4.16h16.64v-8.32Z"/>
  <path class="cls-2" d="M39.52,41.6h18.72v-19.55l12.9,15.39s3.74,4.16,7.49,0l12.9-15.39v19.55h18.72V0h-18.72s-12.48,0-16.64,8.32c0,0-4.16-8.32-16.64-8.32h-18.72v41.6Z"/>
  <polygon class="cls-1" points="110.24 12.48 149.76 12.48 149.76 20.8 137.28 20.8 137.28 41.6 118.56 41.6 118.56 20.8 110.24 20.8 110.24 12.48"/>
  <g>
    <g>
      <path class="cls-1" d="M171.8,12.71h-13.73v2.13h13v8.49h-6.58v-5.12h-2.5v5.12h-3.92v2.13h15.5v-10.97c0-.52-.17-.95-.49-1.28-.33-.33-.76-.49-1.28-.49Z"/>
      <g>
        <path class="cls-1" d="M178.72,19.55h13.43v-6.84h-15.2v5.07c0,.52.17.96.49,1.28.33.33.76.49,1.28.49ZM189.65,14.84v2.58h-10.2v-2.58h10.2Z"/>
        <polygon class="cls-1" points="185.8 20.45 183.3 20.45 183.3 23.33 176.8 23.33 176.8 25.46 192.3 25.46 192.3 23.33 185.8 23.33 185.8 20.45"/>
      </g>
      <g>
        <rect class="cls-1" x="208.52" y="12.71" width="2.5" height="9.16"/>
        <path class="cls-1" d="M197.3,21.12h8.31v.75h2.5v-7.38c0-.52-.17-.95-.49-1.28-.33-.33-.76-.49-1.28-.49h-2.37v2.13h1.64v4.15h-7.59v-1.09h5.01v-2.13h-5.01v-.94h5.01v-2.13h-7.51v6.64c0,.52.17.96.49,1.28.33.33.76.49,1.28.49Z"/>
        <path class="cls-1" d="M209.19,22.54h-13.74v2.13h13.07v3.1h2.5v-3.53c0-.51-.17-.93-.52-1.24-.34-.31-.78-.47-1.32-.47Z"/>
      </g>
      <g>
        <path class="cls-1" d="M214.24,14.84h6.49c-.06.69-.35,1.21-.88,1.58-.62.44-1.35.66-2.16.66h-3.45v2.13h3.75c.88,0,1.7-.15,2.46-.45.65-.26,1.19-.72,1.6-1.36.47.62,1.05,1.07,1.75,1.34.8.31,1.61.47,2.42.47h3.53v-2.13h-3.23c-.81,0-1.58-.23-2.28-.68-.59-.38-.91-.89-.98-1.56h6.49v-2.13h-15.5v2.13Z"/>
        <polygon class="cls-1" points="214.24 23.1 220.74 23.1 220.74 27.85 223.24 27.85 223.24 23.1 229.74 23.1 229.74 20.97 214.24 20.97 214.24 23.1"/>
      </g>
      <g>
        <path class="cls-1" d="M246.64,22.54h-13.74v2.13h13.07v3.1h2.5v-3.53c0-.51-.17-.93-.52-1.24-.34-.31-.78-.47-1.32-.47Z"/>
        <rect class="cls-1" x="245.97" y="12.71" width="2.5" height="9.42"/>
        <path class="cls-1" d="M235.6,20.48c.73-.43,1.3-1,1.7-1.69.47.76,1.13,1.34,1.96,1.73.98.45,2.41.66,4.23.6h.27v-2.14h-.29c-1.9.11-3.22-.2-3.92-.89-.7-.7-1.06-1.76-1.06-3.15v-2.22h-2.5v2.26c0,1.13-.27,2.12-.81,2.93-.52.78-1.3,1.14-2.37,1.09h-.29s0,2.1,0,2.1l.25.03c.16.02.32.03.48.03.81,0,1.59-.22,2.34-.66Z"/>
      </g>
      <path class="cls-1" d="M264.69,23.35h-6.43v-2.03c.66-.2,1.26-.55,1.79-1.05.87-.83,1.32-1.85,1.32-3.02,0-.52-.12-1.04-.34-1.54-.14-.3-.32-.58-.55-.85h1.87v-2.13h-4.07v-1.08h-2.5v1.08h-4.3v2.13h1.94c-.27.29-.48.58-.62.88-.23.48-.35.98-.35,1.51,0,1.17.44,2.19,1.29,3.02.58.56,1.26.94,2.03,1.12v1.96h-4.07v2.13h13v2.39h2.5v-15.14h-2.5v10.62ZM258.86,17.31c0,.56-.19,1.03-.58,1.45-.39.42-.84.62-1.38.62s-.99-.2-1.38-.62c-.39-.42-.58-.9-.58-1.45s.19-1.06.58-1.47c.39-.41.84-.6,1.38-.6s.99.2,1.38.6c.39.41.58.89.58,1.47Z"/>
      <path class="cls-1" d="M284.21,12.71c-.52,0-.95.17-1.28.49-.33.33-.49.76-.49,1.28v6.5c-2.26.02-3.83-.28-4.68-.88-.91-.65-1.38-1.91-1.38-3.75v-3.64h-2.5v3.64c0,1.52-.35,2.73-1.04,3.58-.68.84-1.65,1.18-2.99,1.04l-.31-.03v2.14l.25.02c1.37.13,2.52-.06,3.41-.58.77-.44,1.42-1.12,1.94-2.02.63.91,1.46,1.58,2.49,2,1.05.43,2.62.64,4.8.62v4.73h2.5v-13.01h2.09v-2.13h-2.82Z"/>
    </g>
    <g>
      <path class="cls-1" d="M167.23,35.53c-.28-.32-.62-.57-1-.76-.38-.19-.79-.28-1.24-.28h-2v2.38h1.92c.27,0,.5.11.68.33.17.22.26.47.26.76s-.09.54-.27.76c-.18.22-.41.33-.67.33l-2.24.02c-1.52,0-2.28-1.07-2.28-3.17v-.14c0-1.16.19-2.02.57-2.56.38-.55.96-.82,1.73-.82h4.58v-2.38h-4.11c-1.67,0-2.94.48-3.78,1.42-.84.94-1.28,2.38-1.3,4.27v.05c0,1.9.43,3.34,1.27,4.29.84.94,2.11,1.42,3.79,1.42h1.84c.42,0,.83-.1,1.21-.28.38-.19.72-.45,1.01-.76.29-.32.53-.68.7-1.09.17-.41.26-.83.26-1.26v-.18c0-.42-.08-.84-.24-1.25-.16-.4-.39-.77-.67-1.08Z"/>
      <path class="cls-1" d="M174.07,29.99h-.82c-1.66,0-2.93.5-3.79,1.48-.84.95-1.27,2.37-1.28,4.22v.05c0,1.9.43,3.34,1.27,4.29.84.94,2.11,1.42,3.79,1.42h.85c1.68,0,2.96-.48,3.79-1.42.84-.95,1.27-2.39,1.27-4.29v-.05c-.02-1.89-.45-3.33-1.3-4.27-.84-.94-2.11-1.42-3.78-1.42ZM174.56,39.06h-1.8c-1.51,0-2.28-1.11-2.28-3.31,0-1.16.19-2.02.57-2.56.38-.55.96-.82,1.73-.82h1.77c.77,0,1.35.28,1.73.82.38.54.57,1.4.57,2.56,0,2.2-.77,3.31-2.28,3.31Z"/>
      <path class="cls-1" d="M192.73,30.54c-.47-.39-1.02-.59-1.63-.59-.41,0-.8.07-1.17.21-.36.14-.68.33-.95.59-.27.25-.48.56-.63.92-.15.36-.23.77-.23,1.2v5.32c0,.49-.2.74-.58.74-.24,0-.38-.16-.43-.47l-2.09-6.35h.02c-.21-.67-.57-1.2-1.05-1.58-.49-.39-1.04-.59-1.63-.59-.41,0-.8.07-1.17.21-.36.14-.68.33-.95.59-.27.25-.48.56-.63.92-.15.36-.23.77-.23,1.2v8.56h2.42v-8.37c0-.49.2-.74.58-.74.24,0,.38.16.43.47l2.06,6.31c.22.69.58,1.24,1.07,1.63.48.39,1.03.59,1.63.59.41,0,.8-.07,1.17-.21.36-.14.68-.34.95-.59.27-.25.48-.56.63-.93.15-.36.23-.77.23-1.21v-5.33c0-.49.2-.74.58-.74.24,0,.38.16.43.47l2.9,8.64h2.57l-3.23-9.27c-.23-.69-.59-1.24-1.07-1.63Z"/>
      <path class="cls-1" d="M202.1,29.99h-.82c-1.66,0-2.93.5-3.79,1.48-.84.95-1.27,2.37-1.28,4.22v.05c0,1.9.43,3.34,1.27,4.29.84.94,2.11,1.42,3.79,1.42h.85c1.68,0,2.96-.48,3.79-1.42.84-.95,1.27-2.39,1.27-4.29v-.05c-.02-1.89-.45-3.33-1.3-4.27-.84-.94-2.11-1.42-3.78-1.42ZM202.59,39.06h-1.8c-1.51,0-2.28-1.11-2.28-3.31,0-1.16.19-2.02.57-2.56.38-.55.96-.82,1.73-.82h1.77c.77,0,1.35.28,1.73.82.38.54.57,1.4.57,2.56,0,2.2-.77,3.31-2.28,3.31Z"/>
      <path class="cls-1" d="M215.8,30.38c-.46.26-.83.65-1.12,1.14-.07.11-.12.23-.17.35-.01.03-.03.07-.04.1-.01.03-.03.07-.04.1v-2.09h-7.42v2.38h2.63v9.07h2.3v-9.07h2.4s0,.02,0,.04,0,.02,0,.04c-.05.23-.08.46-.08.7,0,.58.07,1.07.22,1.47.14.39.46.74.95,1.04l.05.03-.05.03c-.44.29-.75.63-.92,1.03-.17.4-.25.81-.25,1.23s.06.85.19,1.26c.12.41.33.79.61,1.12.28.33.66.59,1.11.8.45.2,1.02.3,1.67.3h5.54v-2.38h-5.81c-.28,0-.52-.11-.72-.32-.19-.21-.29-.47-.29-.78s.1-.57.29-.78c.19-.21.43-.32.7-.32h5.83v-2.38h-5.81c-.31,0-.55-.1-.74-.31-.18-.2-.27-.45-.27-.74s.1-.54.29-.75c.19-.21.43-.32.7-.32h5.83v-2.38h-5.54c-.89,0-1.58.13-2.04.4Z"/>
      <path class="cls-1" d="M224.85,31.41c-.84.94-1.28,2.38-1.3,4.27v.05c0,1.9.43,3.34,1.27,4.29.84.94,2.11,1.42,3.79,1.42h4.11v-2.38h-4.58c-1.51,0-2.28-1.07-2.28-3.17v-.14c0-1.16.19-2.02.57-2.56.38-.55.96-.82,1.73-.82h4.58v-2.38h-4.11c-1.67,0-2.94.48-3.78,1.42Z"/>
      <path class="cls-1" d="M237.53,31.41c-.84.94-1.28,2.38-1.3,4.27v.05c0,1.9.43,3.34,1.27,4.29.84.94,2.11,1.42,3.79,1.42h4.11v-2.38h-4.58c-1.51,0-2.28-1.07-2.28-3.17v-.14c0-1.16.19-2.02.57-2.56.38-.55.96-.82,1.73-.82h4.58v-2.38h-4.11c-1.67,0-2.94.48-3.78,1.42Z"/>
      <path class="cls-1" d="M256.49,35.68c-.02-1.89-.45-3.33-1.3-4.27-.84-.94-2.11-1.42-3.78-1.42h-.82c-1.66,0-2.93.5-3.79,1.48-.84.95-1.27,2.37-1.28,4.22v.05c0,1.9.43,3.34,1.27,4.29.84.94,2.11,1.42,3.79,1.42h.85c1.68,0,2.96-.48,3.79-1.42.84-.95,1.27-2.39,1.27-4.29v-.05ZM251.9,39.06h-1.8c-1.51,0-2.28-1.11-2.28-3.31,0-1.16.19-2.02.57-2.56.38-.55.96-.82,1.73-.82h1.77c.77,0,1.35.28,1.73.82.38.54.57,1.4.57,2.56,0,2.2-.77,3.31-2.28,3.31Z"/>
      <rect class="cls-1" x="256.49" y="38.72" width="2.26" height="2.23"/>
      <path class="cls-1" d="M258.99,41.3c-.13.09-.33.14-.58.15v2.23c.41-.01.8-.08,1.16-.21.39-.14.73-.34,1.02-.59.29-.25.51-.56.68-.92.16-.36.25-.76.25-1.18v-2.08h-2.26v2.18c0,.16-.09.31-.26.41Z"/>
      <path class="cls-1" d="M264.76,38.37c-.45-.45-.67-1.1-.67-1.91v-6.48h-2.3v6.46c0,.76.11,1.46.31,2.07.21.61.52,1.14.93,1.57.41.43.92.77,1.53,1,.61.23,1.33.35,2.15.35h3.41v-2.38h-3.46c-.81,0-1.45-.23-1.9-.69Z"/>
      <path class="cls-1" d="M285.77,31.41c-.84-.94-2.11-1.42-3.79-1.42h-12.03v2.38h2.63v9.07h2.3v-9.07h2.48v9.07h4.6c1.67,0,2.94-.48,3.78-1.42.84-.94,1.28-2.38,1.3-4.27v-.05c0-1.9-.43-3.34-1.27-4.29ZM284.73,35.68c0,1.16-.19,2.02-.57,2.56-.38.55-.96.82-1.73.82h-2.78v-6.69h2.79c1.52,0,2.28,1.07,2.28,3.17v.14Z"/>
    </g>
  </g>
</svg>